<?xml version="1.0" encoding="UTF-8" standalone="no"?>
<!DOCTYPE svg PUBLIC "-//W3C//DTD SVG 1.1//EN" "http://www.w3.org/Graphics/SVG/1.1/DTD/svg11.dtd">
<svg version="1.1" xmlns="http://www.w3.org/2000/svg" xmlns:xlink="http://www.w3.org/1999/xlink" preserveAspectRatio="xMidYMid meet" viewBox="2.5210370541415337 4.0314465408805145 150.47896294585846 80.4789629458585" width="146.48" height="76.48"><defs><path d="M146.52 5.04L146.66 5.06L146.8 5.08L146.95 5.1L147.09 5.13L147.23 5.17L147.37 5.21L147.51 5.26L147.65 5.31L147.78 5.37L147.92 5.43L148.05 5.5L148.18 5.57L148.3 5.65L148.43 5.74L148.55 5.83L148.67 5.93L148.78 6.03L148.89 6.14L149 6.25L149.1 6.36L149.2 6.48L149.29 6.6L149.38 6.73L149.46 6.86L149.53 6.98L149.6 7.12L149.67 7.25L149.72 7.39L149.78 7.52L149.82 7.66L149.86 7.8L149.9 7.94L149.93 8.08L149.96 8.23L149.98 8.37L149.99 8.52L150 8.66L150 8.81L150 8.95L149.99 9.09L149.98 9.24L149.96 9.38L149.93 9.53L149.9 9.67L149.86 9.81L149.82 9.95L149.78 10.09L149.72 10.23L149.67 10.36L149.6 10.49L149.53 10.63L149.46 10.75L149.38 10.88L149.29 11.01L149.2 11.13L149.1 11.25L149 11.36L148.89 11.47L79.96 80.41L79.85 80.51L79.74 80.62L79.62 80.71L79.5 80.8L79.37 80.89L79.24 80.97L79.11 81.04L78.98 81.11L78.85 81.18L78.71 81.23L78.58 81.29L78.44 81.33L78.3 81.38L78.16 81.41L78.02 81.44L77.87 81.47L77.73 81.49L77.58 81.5L77.44 81.51L77.29 81.51L77.15 81.51L77.01 81.5L76.86 81.49L76.76 81.47L76.66 81.49L76.52 81.5L76.37 81.51L76.23 81.51L76.08 81.51L75.94 81.5L75.79 81.49L75.65 81.47L75.51 81.44L75.36 81.41L75.22 81.38L75.08 81.33L74.94 81.29L74.81 81.23L74.67 81.18L74.54 81.11L74.41 81.04L74.28 80.97L74.15 80.89L74.03 80.8L73.9 80.71L73.79 80.62L73.67 80.51L73.56 80.41L4.63 11.47L4.52 11.36L4.42 11.25L4.32 11.13L4.23 11.01L4.14 10.88L4.06 10.75L3.99 10.63L3.92 10.49L3.86 10.36L3.8 10.23L3.74 10.09L3.7 9.95L3.66 9.81L3.62 9.67L3.59 9.53L3.57 9.38L3.55 9.24L3.53 9.09L3.52 8.95L3.52 8.81L3.52 8.66L3.53 8.52L3.55 8.37L3.57 8.23L3.59 8.08L3.62 7.94L3.66 7.8L3.7 7.66L3.74 7.52L3.8 7.39L3.86 7.25L3.92 7.12L3.99 6.98L4.06 6.86L4.14 6.73L4.23 6.6L4.32 6.48L4.42 6.36L4.52 6.25L4.63 6.14L4.74 6.03L4.85 5.93L4.97 5.83L5.09 5.74L5.22 5.65L5.35 5.57L5.47 5.5L5.61 5.43L5.74 5.37L5.87 5.31L6.01 5.26L6.15 5.21L6.29 5.17L6.43 5.13L6.57 5.1L6.72 5.08L6.86 5.06L7.01 5.04L7.15 5.03L7.29 5.03L7.44 5.03L7.58 5.04L7.73 5.06L7.87 5.08L8.02 5.1L8.16 5.13L8.3 5.17L8.44 5.21L8.58 5.26L8.71 5.31L8.85 5.37L8.98 5.43L9.11 5.5L9.24 5.57L9.37 5.65L9.5 5.74L9.62 5.83L9.74 5.93L9.85 6.03L9.96 6.14L76.76 72.93L143.56 6.14L143.67 6.03L143.79 5.93L143.9 5.83L144.03 5.74L144.15 5.65L144.28 5.57L144.41 5.5L144.54 5.43L144.67 5.37L144.81 5.31L144.94 5.26L145.08 5.21L145.22 5.17L145.36 5.13L145.51 5.1L145.65 5.08L145.79 5.06L145.94 5.04L146.08 5.03L146.23 5.03L146.37 5.03L146.52 5.04Z" id="d2zQEv1mTA"></path></defs><g><g><use xlink:href="#d2zQEv1mTA" opacity="1" fill="#ffffff" fill-opacity="1"></use></g></g></svg>